<svg id="f7f3564e-749c-47ab-b645-fdacb82a79e5" data-name="Layer 1" xmlns="http://www.w3.org/2000/svg" viewBox="0 0 361.72 359.43"><defs><style>.a67ed3b5-05b7-4ce5-b1b3-1ec62a0d4150{fill:#e74c3c;fill-rule:evenodd;}</style></defs><title>homee-idrop-home_logo</title><path class="a67ed3b5-05b7-4ce5-b1b3-1ec62a0d4150" d="M181.23,8.94C101.94,8.94,42.62,69.75,42.62,144v.74A133.2,133.2,0,0,0,69.73,226C90,252.61,152.32,323.4,173.42,347.27a9.37,9.37,0,0,0,14.13,0c21.06-23.87,83.23-94.64,103.74-121.19A133.69,133.69,0,0,0,319.1,144v-.75C319.1,69,260.5,8.94,181.23,8.94Zm69,189A6.22,6.22,0,0,1,244,204.2H225.83l-56.71-.65-51.47.58a6.22,6.22,0,0,1-6.26-6.25V117.82a6.25,6.25,0,0,1,2.92-5.31L178,78.11l48.81,36.23v.07H244a6.23,6.23,0,0,1,6.19,6.26Z"/></svg>